<?xml version="1.0" encoding="utf-8"?>
<!-- Generator: Adobe Illustrator 20.1.0, SVG Export Plug-In . SVG Version: 6.00 Build 0)  -->
<svg version="1.1" id="图层_1" xmlns="http://www.w3.org/2000/svg" xmlns:xlink="http://www.w3.org/1999/xlink" x="0px" y="0px"
	 viewBox="0 0 18 18" style="enable-background:new 0 0 18 18;" xml:space="preserve">
<style type="text/css">
	.st0{fill:#F5222D;}
</style>
<title>Combined Shape</title>
<desc>Created with Sketch.</desc>
<path id="Combined-Shape" class="st0" d="M9,8.3L6.2,5.5C6,5.3,5.7,5.3,5.5,5.5S5.3,6,5.5,6.2L8.3,9l-2.8,2.8
	c-0.2,0.2-0.2,0.5,0,0.7s0.5,0.2,0.7,0L9,9.7l2.8,2.8c0.2,0.2,0.5,0.2,0.7,0s0.2-0.5,0-0.7L9.7,9l2.8-2.8c0.2-0.2,0.2-0.5,0-0.7
	s-0.5-0.2-0.7,0L9,8.3z M9,18c-5,0-9-4-9-9s4-9,9-9s9,4,9,9S14,18,9,18z"/>
</svg>
