<?xml version="1.0" encoding="UTF-8"?>
<svg width="8px" height="8px" viewBox="0 0 8 8" version="1.1" xmlns="http://www.w3.org/2000/svg" xmlns:xlink="http://www.w3.org/1999/xlink">
    <!-- Generator: Sketch 52.4 (67378) - http://www.bohemiancoding.com/sketch -->
    <title>小图标/关闭-黑色</title>
    <desc>Created with Sketch.</desc>
    <g id="图上作战" stroke="none" stroke-width="1" fill="none" fill-rule="evenodd">
        <g id="6、图上作战-一键调度对话框" transform="translate(-114.000000, -220.000000)" fill="#999999" fill-rule="nonzero">
            <g id="Group-11-Copy" transform="translate(108.000000, 62.000000)">
                <g id="Group-14-Copy-2" transform="translate(0.000000, 140.000000)">
                    <g id="小图标/关闭-黑色" transform="translate(6.000000, 18.000000)">
                        <path d="M7.02595356,0.167115221 L4.00000067,3.19307593 L0.974039964,0.167115221 C0.751227481,-0.0557050738 0.389954072,-0.0557050738 0.167118151,0.167115221 C-0.0557099566,0.389935517 -0.0557021441,0.751208926 0.167118151,0.974037034 L3.19307886,3.99999774 L0.167118151,7.02595063 C-0.0557021441,7.24877093 -0.0557021441,7.61005215 0.167118151,7.83288026 C0.389938447,8.05570055 0.751219669,8.05570055 0.974039964,7.83288026 L4.00000067,4.80691955 L7.02595356,7.83288026 C7.24877386,8.05570055 7.61005508,8.05570055 7.83288319,7.83288026 C8.05570348,7.61005996 8.05570348,7.24877093 7.83288319,7.02595063 L4.80692248,3.99999774 L7.83288319,0.974037034 C8.05570348,0.751216739 8.05570348,0.389943329 7.83288319,0.167115221 C7.61006289,-0.0557050738 7.24878948,-0.0557050738 7.02595356,0.167115221 Z"></path>
                    </g>
                </g>
            </g>
        </g>
    </g>
</svg>