<?xml version="1.0" encoding="utf-8"?>
<!-- Generator: Adobe Illustrator 20.1.0, SVG Export Plug-In . SVG Version: 6.00 Build 0)  -->
<svg version="1.1" id="图层_1" xmlns="http://www.w3.org/2000/svg" xmlns:xlink="http://www.w3.org/1999/xlink" x="0px" y="0px"
	 viewBox="0 0 18 14" style="enable-background:new 0 0 18 14;" xml:space="preserve">
<style type="text/css">
	.st0{fill:#2D8CF0;}
</style>
<title>语音 copy 2</title>
<desc>Created with Sketch.</desc>
<path id="Combined-Shape" class="st0" d="M1,0h5.6c0.3,0,0.5,0.1,0.7,0.3L9,2h8c0.6,0,1,0.4,1,1v10c0,0.6-0.4,1-1,1H1
	c-0.6,0-1-0.4-1-1V1C0,0.4,0.4,0,1,0z M1,1v12h16V3H9C8.7,3,8.5,2.9,8.3,2.7L6.6,1H1z M1,4h16v1H1V4z"/>
</svg>
