<?xml version="1.0" encoding="utf-8"?>
<!-- Generator: Adobe Illustrator 20.1.0, SVG Export Plug-In . SVG Version: 6.00 Build 0)  -->
<svg version="1.1" id="图层_1" xmlns="http://www.w3.org/2000/svg" xmlns:xlink="http://www.w3.org/1999/xlink" x="0px" y="0px"
	 viewBox="0 0 10 12" style="enable-background:new 0 0 10 12;" xml:space="preserve">
<style type="text/css">
	.st0{fill:#2D8CF0;}
</style>
<title>语音 copy 3</title>
<desc>Created with Sketch.</desc>
<path id="Combined-Shape" class="st0" d="M0.1,0.9C0,0.7,0,0.4,0.1,0.2C0.3,0,0.6,0,0.8,0.2l5.4,5.5C6.3,5.7,6.3,5.9,6.3,6
	c0,0.1,0,0.3-0.1,0.4l-5.4,5.5c-0.2,0.2-0.5,0.2-0.7,0c-0.2-0.2-0.2-0.5,0-0.7L5.2,6L0.1,0.9z M3.8,0.8c-0.2-0.2-0.2-0.5,0-0.7
	C4,0,4.3,0,4.5,0.1l5.4,5.5C10,5.7,10,5.8,10,6c0,0.1,0,0.3-0.1,0.4l-5.4,5.5C4.3,12,4,12,3.8,11.8c-0.2-0.2-0.2-0.5,0-0.7L8.9,6
	L3.8,0.8z"/>
</svg>
