<?xml version="1.0" encoding="UTF-8"?>
<svg width="20px" height="20px" viewBox="0 0 20 20" version="1.1" xmlns="http://www.w3.org/2000/svg" xmlns:xlink="http://www.w3.org/1999/xlink">
    <!-- Generator: Sketch 57.1 (83088) - https://sketch.com -->
    <title>图片</title>
    <desc>Created with Sketch.</desc>
    <g id="Symbols" stroke="none" stroke-width="1" fill="none" fill-rule="evenodd">
        <g id="图片" fill="#2D8CF0" fill-rule="nonzero">
            <path d="M17.0961539,3 C18.1346154,3 19,3.86538462 19,4.90384616 L19,15.6346154 C19,16.6730769 18.1346154,17.5384616 17.0961539,17.5384616 L2.90384614,17.5384616 C1.8653846,17.5384616 1,16.6730769 1,15.6346154 L1,4.90384616 C1,3.86538462 1.8653846,3 2.90384614,3 L17.0961539,3 Z M17.0961539,4.03846154 L2.90384614,4.03846154 C2.41923076,4.03846154 2.03846152,4.41923078 2.03846152,4.90384616 L2.03846152,15.6346154 C2.03846152,16.1192308 2.41923076,16.5 2.90384614,16.5 L17.0961539,16.5 C17.5807692,16.5 17.9615385,16.1192308 17.9615385,15.6346154 L17.9615385,4.90384616 C17.9615385,4.41923078 17.5807692,4.03846154 17.0961539,4.03846154 Z M8.4423077,9.64615385 L11.718,12.739 L13.3576923,11.1 C13.4615385,10.9961539 13.6,10.9615385 13.7384615,10.9615385 C13.8769231,10.9615385 14.0153846,11.0307692 14.1192308,11.1346154 L17.0269231,14.1807692 C17.2346154,14.3884615 17.2346154,14.7 17.0269231,14.9076923 C16.8884615,14.9769231 16.75,15.0115385 16.6115385,15.0115385 C16.4730769,15.0115385 16.3346154,14.9423077 16.2307692,14.8384616 L13.7038462,12.2076923 L12.466,13.444 L13.9807692,14.8730769 C14.1884615,15.0807692 14.1884615,15.3923077 14.0153846,15.6 C13.9115385,15.7038462 13.7730769,15.7384616 13.6692308,15.7384616 C13.5307692,15.7384616 13.4269231,15.7038462 13.3230769,15.6 L8.13076923,10.7192308 L3.76923077,15.0461539 C3.56153845,15.2538462 3.25,15.2538462 3.04230769,15.0461539 C2.83461537,14.8384615 2.83461537,14.5269231 3.04230769,14.3192308 L7.71538462,9.64615385 C7.92307693,9.43846153 8.23461538,9.43846153 8.4423077,9.64615385 Z M12.0769231,5.25 C13.1153846,5.25 13.9807692,6.11538463 13.9807692,7.15384615 C13.9807692,8.19230767 13.1153846,9.05769231 12.0769231,9.05769231 C11.0384615,9.05769231 10.1730769,8.19230769 10.1730769,7.15384615 C10.1730769,6.11538461 11.0384615,5.25 12.0769231,5.25 Z M12.0769231,6.28846155 C11.5923077,6.28846155 11.2115385,6.66923078 11.2115385,7.15384615 C11.2115385,7.63846152 11.5923077,8.01923077 12.0769231,8.01923077 C12.5615385,8.01923077 12.9423077,7.63846153 12.9423077,7.15384615 C12.9423077,6.66923076 12.5615385,6.28846155 12.0769231,6.28846155 Z" id="形状结合"></path>
        </g>
    </g>
</svg>