<?xml version="1.0" encoding="UTF-8"?>
<svg width="14px" height="14px" viewBox="0 0 14 14" version="1.1" xmlns="http://www.w3.org/2000/svg" xmlns:xlink="http://www.w3.org/1999/xlink">
    <!-- Generator: Sketch 52.4 (67378) - http://www.bohemiancoding.com/sketch -->
    <title>搜索 copy</title>
    <desc>Created with Sketch.</desc>
    <g id="图上作战" stroke="none" stroke-width="1" fill="none" fill-rule="evenodd">
        <g id="6、图上作战-一键调度对话框" transform="translate(-1782.000000, -550.000000)" fill="#2D8CF0">
            <g id="Group-15" transform="translate(1766.000000, 113.000000)">
                <g id="搜索-copy" transform="translate(16.000000, 437.000000)">
                    <path d="M6.22452794,12.4439462 C2.78681608,12.4439462 0,9.65827397 0,6.22197311 C0,2.78567225 2.78681608,0 6.22452794,0 C9.6622398,0 12.4490559,2.78567225 12.4490559,6.22197311 C12.4490559,9.65827397 9.6622398,12.4439462 6.22452794,12.4439462 Z M6.22452794,10.8884529 C8.80281183,10.8884529 10.8929239,8.79919876 10.8929239,6.22197311 C10.8929239,3.64474746 8.80281183,1.55549328 6.22452794,1.55549328 C3.64624405,1.55549328 1.55613199,3.64474746 1.55613199,6.22197311 C1.55613199,8.79919876 3.64624405,10.8884529 6.22452794,10.8884529 Z M11.2808204,11.2808202 C11.5846741,10.9769665 12.0773182,10.9769665 12.3811719,11.2808202 L13.7721099,12.6717582 C14.0759636,12.9756119 14.0759636,13.468256 13.7721099,13.7721097 C13.4682562,14.0759634 12.9756121,14.0759634 12.6717584,13.7721097 L11.2808204,12.3811717 C10.9769667,12.077318 10.9769667,11.5846739 11.2808204,11.2808202 Z" id="Combined-Shape"></path>
                </g>
            </g>
        </g>
    </g>
</svg>