<?xml version="1.0" encoding="utf-8"?>
<!-- Generator: Adobe Illustrator 20.1.0, SVG Export Plug-In . SVG Version: 6.00 Build 0)  -->
<svg version="1.1" id="图层_1" xmlns="http://www.w3.org/2000/svg" xmlns:xlink="http://www.w3.org/1999/xlink" x="0px" y="0px"
	 viewBox="0 0 18 10" style="enable-background:new 0 0 18 10;" xml:space="preserve">
<style type="text/css">
	.st0{fill:#2D8CF0;}
</style>
<title>语音 copy</title>
<desc>Created with Sketch.</desc>
<path id="Combined-Shape" class="st0" d="M13,8v1c0,0.6-0.4,1-1,1H1c-0.6,0-1-0.4-1-1V1c0-0.6,0.4-1,1-1h11c0.6,0,1,0.4,1,1v1l4-1
	c0.6,0,1,0.4,1,1v6c0,0.6-0.4,1-1,1L13,8z M13,7l3.5,1C16.8,8,17,7.8,17,7.5v-5C17,2.2,16.8,2,16.5,2L13,3V7z M1.5,1
	C1.2,1,1,1.2,1,1.5v7C1,8.8,1.2,9,1.5,9h10C11.8,9,12,8.8,12,8.5v-7C12,1.2,11.8,1,11.5,1H1.5z M2,3c0-0.6,0.4-1,1-1s1,0.4,1,1
	S3.6,4,3,4S2,3.6,2,3z"/>
</svg>
