<?xml version="1.0" encoding="utf-8"?>
<!-- Generator: Adobe Illustrator 20.1.0, SVG Export Plug-In . SVG Version: 6.00 Build 0)  -->
<svg version="1.1" id="图层_1" xmlns="http://www.w3.org/2000/svg" xmlns:xlink="http://www.w3.org/1999/xlink" x="0px" y="0px"
	 viewBox="0 0 12 18" style="enable-background:new 0 0 12 18;" xml:space="preserve">
<style type="text/css">
	.st0{fill:#2D8CF0;}
</style>
<title>语音</title>
<desc>Created with Sketch.</desc>
<path id="Combined-Shape" class="st0" d="M5.5,17v-1C2.4,15.7,0,13.1,0,10c0-0.3,0.2-0.5,0.5-0.5S1,9.7,1,10c0,2.8,2.2,5,5,5
	s5-2.2,5-5c0-0.3,0.2-0.5,0.5-0.5S12,9.7,12,10c0,3.1-2.4,5.7-5.5,6v1h1C7.8,17,8,17.2,8,17.5S7.8,18,7.5,18h-3
	C4.2,18,4,17.8,4,17.5S4.2,17,4.5,17H5.5z M6,0c2.2,0,4,1.8,4,4v6c0,2.2-1.8,4-4,4s-4-1.8-4-4V4C2,1.8,3.8,0,6,0z M6,1
	C4.3,1,3,2.3,3,4v6c0,1.7,1.3,3,3,3s3-1.3,3-3V4C9,2.3,7.7,1,6,1z"/>
</svg>
